<svg width="119" height="44" viewBox="0 0 119 44" fill="none" xmlns="http://www.w3.org/2000/svg">
<path d="M59.1877 29.6486C59.9196 29.6486 60.6282 29.5531 61.3136 29.3621C62.0056 29.1711 62.6244 28.8846 63.1701 28.5026C63.7157 28.1137 64.1482 27.626 64.4676 27.0393C64.7936 26.4458 64.9566 25.7534 64.9566 24.9621C64.9566 24.2186 64.8202 23.6046 64.5474 23.1203C64.2813 22.6359 63.9386 22.2471 63.5194 21.9538C63.1068 21.6536 62.6743 21.4217 62.2219 21.2579C61.7694 21.0874 61.3569 20.951 60.9842 20.8486L58.489 20.1528C58.1829 20.071 57.8835 19.9686 57.5907 19.8458C57.2979 19.7231 57.0551 19.5627 56.8621 19.3649C56.6691 19.1603 56.5727 18.8976 56.5727 18.577C56.5727 18.2291 56.6891 17.9289 56.922 17.6765C57.1615 17.4241 57.4676 17.2331 57.8402 17.1035C58.2195 16.9671 58.6221 16.9057 59.0479 16.9193C59.7 16.9398 60.2989 17.1376 60.8445 17.5128C61.3901 17.888 61.7428 18.4338 61.9025 19.15L64.8369 18.6384C64.4909 17.2536 63.8188 16.1928 62.8207 15.4561C61.8226 14.7193 60.5783 14.3407 59.0879 14.3203C58.1031 14.3134 57.2048 14.4703 56.393 14.791C55.5812 15.1116 54.9325 15.5993 54.4467 16.2542C53.961 16.9091 53.7181 17.7311 53.7181 18.7203C53.7181 19.4229 53.8312 20.0062 54.0575 20.47C54.2904 20.9271 54.5798 21.2955 54.9258 21.5751C55.2718 21.8548 55.6278 22.0697 55.9938 22.2198C56.3664 22.3699 56.6924 22.4858 56.9719 22.5677L60.7048 23.6933C61.2637 23.8638 61.6363 24.0787 61.8226 24.3379C62.0089 24.5903 62.1021 24.8666 62.1021 25.1668C62.1021 25.5761 61.9657 25.9206 61.6929 26.2003C61.4267 26.48 61.084 26.6914 60.6648 26.8347C60.2456 26.9779 59.8131 27.0496 59.3673 27.0496C58.5688 27.0496 57.8569 26.821 57.2314 26.364C56.6059 25.9069 56.1934 25.2555 55.9938 24.4096L53.1592 24.8393C53.3056 25.8353 53.6516 26.6948 54.1972 27.4179C54.7495 28.1342 55.4515 28.6868 56.3032 29.0756C57.1615 29.4576 58.123 29.6486 59.1877 29.6486Z" fill="#0B0F19"/>
<path d="M67.35 16.7556H70.0649V14.2998H67.35V16.7556ZM67.35 29.3417H70.0649V18.2905H67.35V29.3417Z" fill="#0B0F19"/>
<path d="M73.2567 29.3417H75.9715V14.2998H73.2567V29.3417Z" fill="#0B0F19"/>
<path d="M79.1634 16.7556H81.8782V14.2998H79.1634V16.7556ZM79.1634 29.3417H81.8782V18.2905H79.1634V29.3417Z" fill="#0B0F19"/>
<path d="M89.6214 29.6486C90.8723 29.6486 91.9237 29.3314 92.7754 28.697C93.6271 28.0626 94.206 27.1587 94.5121 25.9854L91.7374 25.3919C91.5777 25.924 91.3381 26.3333 91.0187 26.6198C90.6993 26.9063 90.2336 27.0496 89.6214 27.0496C88.803 27.0496 88.1841 26.7528 87.7649 26.1593C87.3524 25.559 87.1461 24.7779 87.1461 23.8161C87.1461 22.8951 87.3424 22.1277 87.735 21.5138C88.1342 20.893 88.763 20.5826 89.6214 20.5826C90.1204 20.5826 90.5663 20.7429 90.9588 21.0635C91.3581 21.3841 91.6375 21.831 91.7972 22.404L94.5121 21.6672C94.2725 20.528 93.7202 19.631 92.8552 18.9761C91.9969 18.3144 90.9322 17.9835 89.6613 17.9835C88.5634 17.9835 87.6119 18.2359 86.8068 18.7407C86.0016 19.2455 85.3762 19.9379 84.9304 20.8179C84.4912 21.6979 84.2716 22.6973 84.2716 23.8161C84.2716 24.9212 84.4845 25.9138 84.9104 26.7938C85.3362 27.6738 85.9484 28.3696 86.7469 28.8812C87.5454 29.3928 88.5035 29.6486 89.6214 29.6486Z" fill="#0B0F19"/>
<path d="M101.067 29.6486C102.145 29.6486 103.093 29.4031 103.911 28.9119C104.736 28.4139 105.378 27.7283 105.838 26.8551C106.303 25.9751 106.536 24.9621 106.536 23.8161C106.536 22.6769 106.307 21.6707 105.848 20.7975C105.388 19.9175 104.746 19.2285 103.921 18.7305C103.103 18.2325 102.151 17.9835 101.067 17.9835C100.002 17.9835 99.0606 18.2291 98.2421 18.7203C97.4237 19.2114 96.7816 19.897 96.3158 20.777C95.85 21.6502 95.6171 22.6632 95.6171 23.8161C95.6171 24.9553 95.8434 25.9649 96.2958 26.8449C96.755 27.7181 97.3937 28.4037 98.2122 28.9017C99.0306 29.3996 99.9821 29.6486 101.067 29.6486ZM101.067 27.0496C100.222 27.0496 99.5796 26.7596 99.1404 26.1798C98.7079 25.5931 98.4916 24.8052 98.4916 23.8161C98.4916 22.8542 98.6979 22.0765 99.1105 21.4831C99.5297 20.8827 100.182 20.5826 101.067 20.5826C101.925 20.5826 102.571 20.8759 103.003 21.4626C103.442 22.0493 103.662 22.8338 103.662 23.8161C103.662 24.7643 103.446 25.542 103.013 26.1491C102.587 26.7494 101.938 27.0496 101.067 27.0496Z" fill="#0B0F19"/>
<path d="M108.711 29.3417H111.466V23.7342C111.466 23.0452 111.539 22.4927 111.685 22.0765C111.839 21.6604 112.031 21.3466 112.264 21.1351C112.497 20.9169 112.747 20.7702 113.013 20.6951C113.279 20.6201 113.529 20.5826 113.762 20.5826C114.34 20.5826 114.786 20.7156 115.099 20.9817C115.418 21.2477 115.648 21.5786 115.788 21.9742C115.927 22.3699 116.011 22.7655 116.037 23.1612C116.064 23.55 116.077 23.8707 116.077 24.1231V29.3417H118.832V23.1407C118.832 22.9565 118.819 22.6632 118.792 22.2607C118.765 21.8582 118.689 21.4148 118.562 20.9305C118.436 20.4393 118.223 19.9686 117.924 19.5184C117.631 19.0682 117.218 18.6964 116.686 18.4031C116.154 18.1097 115.465 17.9631 114.62 17.9631C113.841 17.9631 113.163 18.0961 112.584 18.3621C112.005 18.6282 111.519 18.9829 111.127 19.4263V18.2905H108.711V29.3417Z" fill="#0B0F19"/>
<path d="M9.96614 22L3.98646 12.2791L22.4238 0L21.9255 10.7442L9.96614 22Z" fill="url(#paint0_linear_4632_11308)"/>
<path d="M21.9255 10.7442L22.4238 0L41.3595 8.69767L37.373 26.093L11.9594 30.186L9.96614 22L21.9255 10.7442Z" fill="url(#paint1_linear_4632_11308)"/>
<path d="M30.3967 44L11.9594 30.186L37.373 26.093L41.8578 30.6977L30.3967 44Z" fill="url(#paint2_linear_4632_11308)"/>
<path d="M37.373 26.093L41.8578 30.6977L45.8443 17.907L41.3595 8.69767L37.373 26.093Z" fill="url(#paint3_linear_4632_11308)"/>
<path d="M11.9594 30.186L30.3967 44L11.9594 41.4418L0 26.6046L11.9594 30.186Z" fill="url(#paint4_linear_4632_11308)"/>
<path d="M3.98646 12.2791L0 26.6046L11.9594 30.186L9.96614 22L3.98646 12.2791Z" fill="url(#paint5_linear_4632_11308)"/>
<path d="M30.3973 43.9997L11.96 30.1858L37.3736 26.0928L41.8584 30.6974L30.3973 43.9997Z" fill="black" fill-opacity="0.17"/>
<path d="M37.3721 26.0931L41.8568 30.6977L45.8433 17.9071L41.3585 8.69775L37.3721 26.0931Z" fill="black" fill-opacity="0.1"/>
<path d="M11.9594 30.1859L30.3967 43.9998L11.9594 41.4417L0 26.6045L11.9594 30.1859Z" fill="black" fill-opacity="0.23"/>
<path d="M3.98646 12.2793L0 26.6049L11.9594 30.1863L9.96614 22.0002L3.98646 12.2793Z" fill="#C0C0C0" fill-opacity="0.05"/>
<path d="M9.96614 22L3.98646 12.2791L22.4238 0L21.9255 10.7442L9.96614 22Z" fill="white" fill-opacity="0.15"/>
<path fill-rule="evenodd" clip-rule="evenodd" d="M9.96614 22L21.9255 10.7442L22.4238 0L3.98646 12.2791L9.96614 22ZM10.0279 21.5255L21.6327 10.6033L22.0974 0.583262L4.39698 12.3716L10.0279 21.5255Z" fill="white" fill-opacity="0.15"/>
<path fill-rule="evenodd" clip-rule="evenodd" d="M22.2183 10.8851L10.2994 22.1028L12.1831 29.8393L37.1281 25.8217L41.0119 8.87429L22.7016 0.4639L22.2183 10.8851ZM21.9255 10.7442L9.96614 22L11.9594 30.186L37.373 26.093L41.3595 8.69767L22.4238 0L21.9255 10.7442Z" fill="white" fill-opacity="0.15"/>
<path fill-rule="evenodd" clip-rule="evenodd" d="M30.3531 43.5873L41.4475 30.7105L37.2691 26.4205L12.7182 30.3745L30.3531 43.5873ZM30.3967 44L41.8578 30.6977L37.373 26.093L11.9594 30.186L30.3967 44Z" fill="white" fill-opacity="0.15"/>
<path fill-rule="evenodd" clip-rule="evenodd" d="M41.8578 30.6977L45.8443 17.907L41.3595 8.69767L37.373 26.093L41.8578 30.6977ZM37.7022 25.9969L41.7225 30.1246L45.5224 17.9325L41.4614 9.59332L37.7022 25.9969Z" fill="white" fill-opacity="0.15"/>
<path fill-rule="evenodd" clip-rule="evenodd" d="M11.8254 30.4657L0.851331 27.1793L12.1152 41.1537L29.2668 43.5334L11.8254 30.4657ZM11.9594 30.186L0 26.6046L11.9594 41.4418L30.3967 44L11.9594 30.186Z" fill="white" fill-opacity="0.15"/>
<path fill-rule="evenodd" clip-rule="evenodd" d="M0.369168 26.3954L11.543 29.7416L9.68773 22.1222L4.09041 13.0229L0.369168 26.3954ZM0 26.6046L11.9594 30.186L9.96614 22L3.98646 12.2791L0 26.6046Z" fill="white" fill-opacity="0.15"/>
<path d="M23.1145 19.0159H26.4976C26.4487 15.9654 24.0031 13.8593 20.2857 13.8593C16.6255 13.8593 13.9434 15.9319 13.9597 19.0409C13.9516 21.5649 15.688 23.0108 18.5086 23.7045L20.3265 24.1725C22.1444 24.6238 23.1552 25.1587 23.1634 26.312C23.1552 27.5656 21.9977 28.4181 20.2042 28.4181C18.37 28.4181 17.0494 27.5489 16.9352 25.8356H13.5195C13.6092 29.538 16.1934 31.4519 20.245 31.4519C24.321 31.4519 26.7177 29.4545 26.7258 26.3204C26.7177 23.4704 24.6226 21.9577 21.7205 21.2891L20.2205 20.9214C18.7694 20.5787 17.5548 20.0271 17.5792 18.7986C17.5792 17.6954 18.533 16.8847 20.2613 16.8847C21.9487 16.8847 22.9841 17.6703 23.1145 19.0159Z" fill="white"/>
<path d="M31.7503 19.3026H28.5972V31.2095H31.7503V19.3026Z" fill="white"/>
<path d="M30.575 9.90723H29.421L27.9834 10.8404V11.9566L29.3132 11.102H29.3473V15.8607H30.575V9.90723Z" fill="white"/>
<path d="M31.8673 14.8142H34.6546V15.8607H35.8285V14.8142H36.5487V13.8055H35.8285V9.90723H34.2916L31.8673 13.8229V14.8142ZM34.6773 13.8055H33.1036V13.759L34.6319 11.2793H34.6773V13.8055Z" fill="white"/>
<defs>
<linearGradient id="paint0_linear_4632_11308" x1="0" y1="22.1053" x2="45.8443" y2="22.1053" gradientUnits="userSpaceOnUse">
<stop stop-color="#6366F1"/>
<stop offset="0.5" stop-color="#8B5CF6"/>
<stop offset="1" stop-color="#D946EF"/>
</linearGradient>
<linearGradient id="paint1_linear_4632_11308" x1="0" y1="22.1053" x2="45.8443" y2="22.1053" gradientUnits="userSpaceOnUse">
<stop stop-color="#6366F1"/>
<stop offset="0.5" stop-color="#8B5CF6"/>
<stop offset="1" stop-color="#D946EF"/>
</linearGradient>
<linearGradient id="paint2_linear_4632_11308" x1="0" y1="22.1053" x2="45.8443" y2="22.1053" gradientUnits="userSpaceOnUse">
<stop stop-color="#6366F1"/>
<stop offset="0.5" stop-color="#8B5CF6"/>
<stop offset="1" stop-color="#D946EF"/>
</linearGradient>
<linearGradient id="paint3_linear_4632_11308" x1="0" y1="22.1053" x2="45.8443" y2="22.1053" gradientUnits="userSpaceOnUse">
<stop stop-color="#6366F1"/>
<stop offset="0.5" stop-color="#8B5CF6"/>
<stop offset="1" stop-color="#D946EF"/>
</linearGradient>
<linearGradient id="paint4_linear_4632_11308" x1="0" y1="22.1053" x2="45.8443" y2="22.1053" gradientUnits="userSpaceOnUse">
<stop stop-color="#6366F1"/>
<stop offset="0.5" stop-color="#8B5CF6"/>
<stop offset="1" stop-color="#D946EF"/>
</linearGradient>
<linearGradient id="paint5_linear_4632_11308" x1="0" y1="22.1053" x2="45.8443" y2="22.1053" gradientUnits="userSpaceOnUse">
<stop stop-color="#6366F1"/>
<stop offset="0.5" stop-color="#8B5CF6"/>
<stop offset="1" stop-color="#D946EF"/>
</linearGradient>
</defs>
</svg>
